<svg xmlns="http://www.w3.org/2000/svg" version="1.1" xmlns:xlink="http://www.w3.org/1999/xlink" xmlns:svgjs="http://svgjs.dev/svgjs" width="1440" height="560" preserveAspectRatio="none" viewBox="0 0 1440 560"><g mask="url(&quot;#SvgjsMask1028&quot;)" fill="none"><rect width="1440" height="560" x="0" y="0" fill="rgba(238, 198, 6, 1)"></rect><path d="M227.71261092411896 196.60108286341807L305.91198975118976 255.5285414940799 364.8394483818516 177.32916266700911 286.6400695547808 118.40170403634728z" fill="rgba(7, 7, 7, 0.95)" class="triangle-float3"></path><path d="M837.628,704.207C897.277,707.561,961.573,687.997,990.08,635.494C1017.715,584.597,992.596,524.823,961.585,475.909C933.271,431.25,890.419,398.057,837.628,395.033C778.89,391.669,715.023,408.762,686.367,460.145C658.21,510.632,681.784,570.734,712.237,619.87C740.678,665.759,783.725,701.176,837.628,704.207" fill="rgba(7, 7, 7, 0.95)" class="triangle-float2"></path><path d="M304.867,144.742C332.986,143.383,359.816,133.141,375.466,109.74C393.183,83.246,402.317,49.495,387.397,21.331C371.687,-8.324,338.407,-24.669,304.867,-23.527C273.14,-22.447,247.726,-0.664,231.527,26.637C214.915,54.633,204.199,89.531,221.372,117.186C237.943,143.871,273.492,146.258,304.867,144.742" fill="rgba(7, 7, 7, 0.95)" class="triangle-float2"></path><path d="M934.8786194966319-49.73035792954929L893.3942955447168 52.94694690669861 996.0716003809647 94.43127085861374 1037.5559243328798-8.24603397763417z" fill="rgba(7, 7, 7, 0.95)" class="triangle-float3"></path><path d="M945.766,606.636C987.032,608.385,1031.737,597.652,1052.351,561.861C1072.939,526.116,1059.579,482.206,1037.505,447.359C1017.177,415.269,983.743,392.745,945.766,393.605C909.116,394.435,879.24,419.586,860.952,451.357C842.712,483.045,836.232,521.356,853.759,553.444C871.96,586.766,907.831,605.028,945.766,606.636" fill="rgba(7, 7, 7, 0.95)" class="triangle-float1"></path><path d="M1290.6765350394655 560.215539452843L1139.1837264578332 461.62956852123017 1128.1621485400296 619.2454759460866z" fill="rgba(7, 7, 7, 0.95)" class="triangle-float3"></path><path d="M507.96916808203275 60.26571684904404L405.7348628623652 29.009553045782418 409.96776976730655 197.9890927769145z" fill="rgba(7, 7, 7, 0.95)" class="triangle-float1"></path><path d="M543.657,526.025C568.254,526.585,588.908,508.981,600.642,487.357C611.812,466.772,612.076,441.997,600.211,421.805C588.501,401.876,566.745,391.496,543.657,390.376C518.107,389.137,489.184,393.472,476.73,415.816C464.467,437.817,477.922,463.332,490.996,484.861C503.391,505.272,519.783,525.482,543.657,526.025" fill="rgba(7, 7, 7, 0.95)" class="triangle-float1"></path><path d="M143.321,526.221C179.426,526.081,214.38,510.466,232.923,479.486C251.955,447.689,250.467,408.642,233.378,375.759C214.718,339.854,183.756,305.551,143.321,307.074C104.411,308.539,82.38,347.645,64.291,382.126C47.898,413.373,35.535,449.249,52.503,480.187C69.995,512.081,106.945,526.362,143.321,526.221" fill="rgba(7, 7, 7, 0.95)" class="triangle-float3"></path><path d="M664.8547469883091 122.82038853252945L703.4730388161977 234.97605173634236 815.6287020200106 196.35775990845383 777.010410192122 84.2020967046409z" fill="rgba(7, 7, 7, 0.95)" class="triangle-float2"></path><path d="M134.16,237.554C174.658,237.133,210.31,212.5,230.096,177.162C249.416,142.656,251.646,99.533,229.952,66.468C209.928,35.949,170.63,29.448,134.16,30.942C100.784,32.309,69.669,46.056,51.06,73.796C29.832,105.44,17.466,145.212,34.709,179.192C53.352,215.93,92.965,237.982,134.16,237.554" fill="rgba(7, 7, 7, 0.95)" class="triangle-float3"></path><path d="M231.48637682623547 34.428336379048446L122.84156102551847 128.69020187866636 240.99465363402143 171.69441067465948z" fill="rgba(7, 7, 7, 0.95)" class="triangle-float1"></path></g><defs><mask id="SvgjsMask1028"><rect width="1440" height="560" fill="#ffffff"></rect></mask></defs></svg>