<svg xmlns="http://www.w3.org/2000/svg" version="1.1" xmlns:xlink="http://www.w3.org/1999/xlink" xmlns:svgjs="http://svgjs.dev/svgjs" width="1440" height="560" preserveAspectRatio="none" viewBox="0 0 1440 560"><g mask="url(&quot;#SvgjsMask1011&quot;)" fill="none"><rect width="1440" height="560" x="0" y="0" fill="rgba(181, 130, 3, 1)"></rect><path d="M162.16548128498164 253.05446856130357L240.55156173303317 343.22733907462646 252.33835179830456 174.66838811325204z" fill="rgba(0, 0, 0, 1)" class="triangle-float2"></path><path d="M1264.267,618.667C1317.694,619.362,1358.681,575.647,1383.43,528.292C1406.197,484.729,1407.906,433.321,1383.402,390.711C1358.825,347.975,1313.563,321.653,1264.267,321.081C1213.942,320.497,1164.77,343.941,1140.25,387.892C1116.274,430.866,1127.059,481.914,1150.354,525.261C1175.268,571.621,1211.641,617.983,1264.267,618.667" fill="rgba(0, 0, 0, 1)" class="triangle-float3"></path><path d="M678.554,351.752C701.549,351.885,722.595,337.734,732.815,317.135C742.09,298.441,735.802,276.816,724.408,259.333C714.177,243.634,697.267,234.834,678.554,233.872C657.699,232.8,635.035,236.596,623.734,254.157C611.674,272.897,614.458,297.081,625.372,316.511C636.535,336.384,655.761,351.62,678.554,351.752" fill="rgba(0, 0, 0, 1)" class="triangle-float2"></path><path d="M923.4150690138642 368.8596177275833L761.3120169647243 406.28405613010125 798.7364553672422 568.3871081792411 960.8395074163822 530.9626697767233z" fill="rgba(0, 0, 0, 1)" class="triangle-float3"></path><path d="M363.66544625885103 68.13325946196716L445.5004613590011 111.64570883087646 407.17789562776034-13.701755638182945z" fill="rgba(0, 0, 0, 1)" class="triangle-float1"></path><path d="M320.134,221.753C349.065,222.279,376.638,207.627,390.973,182.491C405.184,157.572,403.519,126.551,388.289,102.242C373.941,79.341,347.152,70.034,320.134,69.425C291.766,68.786,261.068,74.731,246.441,99.045C231.474,123.924,238.67,155.104,253.618,179.994C268.064,204.049,292.08,221.243,320.134,221.753" fill="rgba(0, 0, 0, 1)" class="triangle-float2"></path></g><defs><mask id="SvgjsMask1011"><rect width="1440" height="560" fill="#ffffff"></rect></mask></defs></svg>