<svg xmlns="http://www.w3.org/2000/svg" version="1.1" xmlns:xlink="http://www.w3.org/1999/xlink" xmlns:svgjs="http://svgjs.dev/svgjs" width="1440" height="560" preserveAspectRatio="none" viewBox="0 0 1440 560"><g clip-path="url(&quot;#SvgjsClipPath1004&quot;)" fill="none"><rect width="1440" height="560" x="0" y="0" fill="rgba(181, 130, 3, 1)"></rect><circle r="93.335" cx="-66.01" cy="92.64" stroke="#000000" stroke-opacity="1" stroke-width="2"></circle><circle r="93.335" cx="433.91" cy="422.34" stroke="#000000" stroke-opacity="1" stroke-width="2"></circle><circle r="93.335" cx="674.52" cy="796.73" stroke="#000000" stroke-opacity="1" stroke-width="2"></circle><circle r="83.09" cx="523.08" cy="51.65" stroke="#000000" stroke-opacity="1" stroke-width="2"></circle><circle r="66.85" cx="260.09" cy="80.52" stroke="#000000" stroke-opacity="1" stroke-width="2"></circle><circle r="115.755" cx="881.64" cy="295.52" stroke="#000000" stroke-opacity="1" stroke-width="2"></circle><circle r="114.63" cx="659.34" cy="377.52" stroke="#000000" stroke-opacity="1" stroke-width="2"></circle><circle r="109.925" cx="269.06" cy="95.91" stroke="#000000" stroke-opacity="1" stroke-width="2"></circle><circle r="142.38" cx="1069.86" cy="338.86" stroke="#000000" stroke-opacity="1" stroke-width="2"></circle><circle r="144.965" cx="876.91" cy="535.33" stroke="#000000" stroke-opacity="1" stroke-width="2"></circle><circle r="139.4" cx="94.67" cy="548.76" stroke="#000000" stroke-opacity="1" stroke-width="2"></circle><circle r="105.19" cx="571.84" cy="131.65" stroke="#000000" stroke-opacity="1" stroke-width="2"></circle><circle r="133.385" cx="765.15" cy="535.31" stroke="#000000" stroke-opacity="1" stroke-width="2"></circle><circle r="140.025" cx="698.25" cy="125.2" stroke="#000000" stroke-opacity="1" stroke-width="2"></circle><circle r="99.7" cx="986.19" cy="124.52" stroke="#000000" stroke-opacity="1" stroke-width="2"></circle><circle r="113.17" cx="709.46" cy="450.7" stroke="#000000" stroke-opacity="1" stroke-width="2"></circle><circle r="135.165" cx="1066.47" cy="351.94" stroke="#000000" stroke-opacity="1" stroke-width="2"></circle><circle r="52.25" cx="38.45" cy="348.5" stroke="#000000" stroke-opacity="1" stroke-width="2"></circle><circle r="132.95" cx="1328.79" cy="354.59" stroke="#000000" stroke-opacity="1" stroke-width="2"></circle><circle r="124.92" cx="922.6" cy="289.7" stroke="#000000" stroke-opacity="1" stroke-width="2"></circle><circle r="176.165" cx="496.55" cy="508.17" stroke="#000000" stroke-opacity="1" stroke-width="2"></circle><circle r="169.375" cx="1095.73" cy="61.23" stroke="#000000" stroke-opacity="1" stroke-width="2"></circle><circle r="139.41" cx="716.13" cy="322.53" stroke="#000000" stroke-opacity="1" stroke-width="2"></circle><circle r="68.515" cx="909.75" cy="88.48" stroke="#000000" stroke-opacity="1" stroke-width="2"></circle><circle r="183.02" cx="1269.9" cy="281.4" stroke="#000000" stroke-opacity="1" stroke-width="2"></circle><circle r="137.5" cx="1428.74" cy="254.88" stroke="#000000" stroke-opacity="1" stroke-width="2"></circle><circle r="114.535" cx="44.48" cy="356.55" stroke="#000000" stroke-opacity="1" stroke-width="2"></circle><circle r="140.37" cx="380.18" cy="321.18" stroke="#000000" stroke-opacity="1" stroke-width="2"></circle><circle r="178.17" cx="447.55" cy="476.57" stroke="#000000" stroke-opacity="1" stroke-width="2"></circle><circle r="158.09" cx="329.55" cy="7.04" stroke="#000000" stroke-opacity="1" stroke-width="2"></circle><circle r="94.655" cx="15.53" cy="34.36" stroke="#000000" stroke-opacity="1" stroke-width="2"></circle><circle r="75.985" cx="1189.41" cy="41.71" stroke="#000000" stroke-opacity="1" stroke-width="2"></circle><circle r="83.795" cx="493.98" cy="488.55" stroke="#000000" stroke-opacity="1" stroke-width="2"></circle><circle r="126.78" cx="1305.91" cy="173.1" stroke="#000000" stroke-opacity="1" stroke-width="2"></circle><circle r="55.72" cx="401.63" cy="539" stroke="#000000" stroke-opacity="1" stroke-width="2"></circle><circle r="122.875" cx="978.05" cy="458.82" stroke="#000000" stroke-opacity="1" stroke-width="2"></circle><circle r="142.535" cx="269.61" cy="395.51" stroke="#000000" stroke-opacity="1" stroke-width="2"></circle><circle r="119.845" cx="86.28" cy="398.07" stroke="#000000" stroke-opacity="1" stroke-width="2"></circle><circle r="90.375" cx="1426.05" cy="38.61" stroke="#000000" stroke-opacity="1" stroke-width="2"></circle><circle r="121.695" cx="39.99" cy="255.43" stroke="#000000" stroke-opacity="1" stroke-width="2"></circle></g><defs><clipPath id="SvgjsClipPath1004"><rect width="1440" height="560" x="0" y="0"></rect></clipPath></defs></svg>