<svg xmlns="http://www.w3.org/2000/svg" version="1.1" xmlns:xlink="http://www.w3.org/1999/xlink" xmlns:svgjs="http://svgjs.dev/svgjs" width="1440" height="560" preserveAspectRatio="none" viewBox="0 0 1440 560"><g clip-path="url(&quot;#SvgjsClipPath1002&quot;)" fill="none"><rect width="1440" height="560" x="0" y="0" fill="rgba(218, 165, 32, 1)"></rect><circle r="93.335" cx="56.78" cy="-49.9" stroke="#000000" stroke-opacity="1" stroke-width="2"></circle><circle r="93.335" cx="452.73" cy="417.84" stroke="#000000" stroke-opacity="1" stroke-width="2"></circle><circle r="93.335" cx="716.93" cy="828.59" stroke="#000000" stroke-opacity="1" stroke-width="2"></circle><circle r="159.97" cx="1306.14" cy="260.02" stroke="#000000" stroke-opacity="1" stroke-width="2"></circle><circle r="148.2" cx="858.65" cy="183.36" stroke="#000000" stroke-opacity="1" stroke-width="2"></circle><circle r="107.86" cx="919.21" cy="424.5" stroke="#000000" stroke-opacity="1" stroke-width="2"></circle><circle r="66.765" cx="1112.31" cy="511.75" stroke="#000000" stroke-opacity="1" stroke-width="2"></circle><circle r="124.585" cx="973.17" cy="10.45" stroke="#000000" stroke-opacity="1" stroke-width="2"></circle><circle r="183.655" cx="579.53" cy="476.24" stroke="#000000" stroke-opacity="1" stroke-width="2"></circle><circle r="135.005" cx="110.91" cy="397.85" stroke="#000000" stroke-opacity="1" stroke-width="2"></circle><circle r="151.835" cx="1404.85" cy="378.48" stroke="#000000" stroke-opacity="1" stroke-width="2"></circle><circle r="80.395" cx="365.34" cy="430.3" stroke="#000000" stroke-opacity="1" stroke-width="2"></circle><circle r="66.28" cx="153.84" cy="303.39" stroke="#000000" stroke-opacity="1" stroke-width="2"></circle><circle r="145.845" cx="1069.75" cy="235.19" stroke="#000000" stroke-opacity="1" stroke-width="2"></circle><circle r="74.69" cx="675.54" cy="147.92" stroke="#000000" stroke-opacity="1" stroke-width="2"></circle><circle r="108.135" cx="1390.99" cy="318.65" stroke="#000000" stroke-opacity="1" stroke-width="2"></circle><circle r="47.44" cx="1333.83" cy="355.12" stroke="#000000" stroke-opacity="1" stroke-width="2"></circle><circle r="59.315" cx="762.4" cy="206.08" stroke="#000000" stroke-opacity="1" stroke-width="2"></circle><circle r="56.425" cx="445.32" cy="159.5" stroke="#000000" stroke-opacity="1" stroke-width="2"></circle><circle r="118.13" cx="1361.56" cy="223.33" stroke="#000000" stroke-opacity="1" stroke-width="2"></circle><circle r="50.54" cx="1327.56" cy="439.5" stroke="#000000" stroke-opacity="1" stroke-width="2"></circle><circle r="93.505" cx="751.9" cy="557.94" stroke="#000000" stroke-opacity="1" stroke-width="2"></circle><circle r="133.345" cx="828.84" cy="290.33" stroke="#000000" stroke-opacity="1" stroke-width="2"></circle><circle r="122.315" cx="778.87" cy="506.98" stroke="#000000" stroke-opacity="1" stroke-width="2"></circle><circle r="110.475" cx="259.39" cy="59.05" stroke="#000000" stroke-opacity="1" stroke-width="2"></circle><circle r="116.255" cx="387.66" cy="150.07" stroke="#000000" stroke-opacity="1" stroke-width="2"></circle><circle r="124.79" cx="824.49" cy="258.24" stroke="#000000" stroke-opacity="1" stroke-width="2"></circle><circle r="119.48" cx="1333.56" cy="161.12" stroke="#000000" stroke-opacity="1" stroke-width="2"></circle><circle r="184.19" cx="1413.04" cy="498.89" stroke="#000000" stroke-opacity="1" stroke-width="2"></circle><circle r="150" cx="525.74" cy="136.75" stroke="#000000" stroke-opacity="1" stroke-width="2"></circle><circle r="125.92" cx="273.87" cy="210.64" stroke="#000000" stroke-opacity="1" stroke-width="2"></circle><circle r="54.285" cx="764.43" cy="371.04" stroke="#000000" stroke-opacity="1" stroke-width="2"></circle><circle r="58.455" cx="1156.28" cy="184.01" stroke="#000000" stroke-opacity="1" stroke-width="2"></circle><circle r="88.125" cx="1029.63" cy="310.53" stroke="#000000" stroke-opacity="1" stroke-width="2"></circle><circle r="159.79" cx="101.54" cy="470.19" stroke="#000000" stroke-opacity="1" stroke-width="2"></circle><circle r="129.315" cx="906.51" cy="418.84" stroke="#000000" stroke-opacity="1" stroke-width="2"></circle><circle r="48.485" cx="231.2" cy="363.78" stroke="#000000" stroke-opacity="1" stroke-width="2"></circle><circle r="143.06" cx="1067.61" cy="417.71" stroke="#000000" stroke-opacity="1" stroke-width="2"></circle><circle r="182.945" cx="752.32" cy="348.67" stroke="#000000" stroke-opacity="1" stroke-width="2"></circle><circle r="186.285" cx="430.64" cy="120.83" stroke="#000000" stroke-opacity="1" stroke-width="2"></circle></g><defs><clipPath id="SvgjsClipPath1002"><rect width="1440" height="560" x="0" y="0"></rect></clipPath></defs></svg>